<svg xmlns="http://www.w3.org/2000/svg" width="960" height="600" viewBox="0 0 960 600">
  <defs>
    <linearGradient id="a" x1="0" y1="0" x2="1" y2="1">
      <stop offset="0%" stop-color="#F6D365"/>
      <stop offset="100%" stop-color="#FDA085"/>
    </linearGradient>
  </defs>
  <rect width="100%" height="100%" fill="#0b0d10"/>
  <g transform="translate(80,70)">
    <rect x="0" y="0" width="360" height="460" rx="24" fill="#0f141a" stroke="#2a3543"/>
    <rect x="420" y="30" width="340" height="220" rx="20" fill="#0f141a" stroke="#2a3543"/>
    <rect x="420" y="280" width="340" height="180" rx="20" fill="#0f141a" stroke="#2a3543"/>
    <circle cx="180" cy="90" r="70" fill="none" stroke="url(#a)" stroke-width="10"/>
    <rect x="40" y="190" width="280" height="18" rx="9" fill="#1b2430"/>
    <rect x="40" y="220" width="220" height="12" rx="6" fill="#1b2430"/>
    <rect x="40" y="260" width="280" height="140" rx="16" fill="#121922"/>
    <rect x="450" y="60" width="280" height="16" rx="8" fill="#1b2430"/>
    <rect x="450" y="90" width="240" height="12" rx="6" fill="#1b2430"/>
    <rect x="450" y="320" width="280" height="16" rx="8" fill="#1b2430"/>
    <rect x="450" y="350" width="240" height="12" rx="6" fill="#1b2430"/>
  </g>
</svg>
